HIERARCHY
ROOT Hips
{
 OFFSET 0.000000 0.000000 0.000000
 CHANNELS 6 Xposition Yposition Zposition Yrotation Xrotation Zrotation
 JOINT Chest
 {
  OFFSET 0.000000 10.472350 -0.000389
  CHANNELS 3 Yrotation Xrotation Zrotation
  JOINT Chest2
  {
   OFFSET 0.000000 11.551931 0.000707
   CHANNELS 3 Yrotation Xrotation Zrotation
   JOINT Chest3
   {
    OFFSET 0.000000 10.437915 0.000000
    CHANNELS 3 Yrotation Xrotation Zrotation
    JOINT Chest4
    {
     OFFSET 0.000000 10.437915 0.000000
     CHANNELS 3 Yrotation Xrotation Zrotation
     JOINT Neck
     {
      OFFSET 0.000000 14.676306 0.000000
      CHANNELS 3 Yrotation Xrotation Zrotation
      JOINT Head
      {
       OFFSET 0.000000 9.715761 0.001682
       CHANNELS 3 Yrotation Xrotation Zrotation
       End Site
       {
        OFFSET 0.000000 18.584037 0.000879
       }
      }
     }
     JOINT RightCollar
     {
      OFFSET -3.192169 8.189398 0.000000
      CHANNELS 3 Yrotation Xrotation Zrotation
      JOINT RightShoulder
      {
       OFFSET -14.921841 0.000000 0.000000
       CHANNELS 3 Yrotation Xrotation Zrotation
       JOINT RightElbow
       {
        OFFSET 0.000000 -31.895804 0.000000
        CHANNELS 3 Yrotation Xrotation Zrotation
        JOINT RightWrist
        {
         OFFSET 0.000000 -26.087765 0.000000
         CHANNELS 3 Yrotation Xrotation Zrotation
         End Site
         {
          OFFSET 0.000000 -19.509425 0.000000
         }
        }
       }
      }
     }
     JOINT LeftCollar
     {
      OFFSET 3.192169 8.189398 0.000000
      CHANNELS 3 Yrotation Xrotation Zrotation
      JOINT LeftShoulder
      {
       OFFSET 14.921841 0.000000 0.000000
       CHANNELS 3 Yrotation Xrotation Zrotation
       JOINT LeftElbow
       {
        OFFSET 0.000000 -31.895804 0.000000
        CHANNELS 3 Yrotation Xrotation Zrotation
        JOINT LeftWrist
        {
         OFFSET 0.000000 -26.087765 0.000000
         CHANNELS 3 Yrotation Xrotation Zrotation
         End Site
         {
          OFFSET 0.000000 -19.509425 0.000000
         }
        }
       }
      }
     }
    }
   }
  }
 }
 JOINT RightHip
 {
  OFFSET -8.507794 0.001908 0.000195
  CHANNELS 3 Yrotation Xrotation Zrotation
  JOINT RightKnee
  {
   OFFSET 0.000000 -44.002854 -0.000184
   CHANNELS 3 Yrotation Xrotation Zrotation
   JOINT RightAnkle
   {
    OFFSET 0.000000 -43.029750 -0.000312
    CHANNELS 3 Yrotation Xrotation Zrotation
    JOINT RightToe
    {
     OFFSET 0.000000 -7.822577 17.783028
     CHANNELS 3 Yrotation Xrotation Zrotation
     End Site
     {
      OFFSET 0.000000 -1.616737 7.073338
     }
    }
   }
  }
 }
 JOINT LeftHip
 {
  OFFSET 8.507794 0.001908 0.000195
  CHANNELS 3 Yrotation Xrotation Zrotation
  JOINT LeftKnee
  {
   OFFSET 0.000000 -44.002854 -0.000184
   CHANNELS 3 Yrotation Xrotation Zrotation
   JOINT LeftAnkle
   {
    OFFSET 0.000000 -43.029750 -0.000312
    CHANNELS 3 Yrotation Xrotation Zrotation
    JOINT LeftToe
    {
     OFFSET 0.000000 -7.822577 17.783028
     CHANNELS 3 Yrotation Xrotation Zrotation
     End Site
     {
      OFFSET 0.000000 -1.616737 7.073338
     }
    }
   }
  }
 }
}
MOTION
Frames: 15
Frame Time: 0.008333
306.683987 96.755588 10.054606 19.177076 -9.428794 -0.477488 2.750141 12.164777 4.672529 1.137874 5.467985 1.986284 1.137874 5.467985 1.986284 0.834947 4.104751 1.478378 2.235293 31.322088 3.628549 1.672686 9.332083 3.546050 -5.749876 6.822806 7.558111 -3.797380 -10.042100 -21.386108 0.621156 -53.758711 21.597689 18.690478 0.010259 -22.577604 0.156937 6.891423 -6.994543 -1.509159 -19.007400 16.681719 -5.864974 -23.082025 -19.283313 -10.333034 -7.242184 11.569789 0.002015 12.450506 0.772509 4.802066 0.585070 1.785111 -2.666914 -2.368556 -1.330461 -0.030825 0.359297 -0.161851 -7.461967 -0.280950 13.849288 1.953333 13.242713 2.687605 11.669210 4.295854 -3.114401 -0.843838 4.552721 -0.721562
307.220370 96.741679 10.138823 17.735049 -9.481475 -0.623897 2.855066 12.332313 4.719923 1.138828 5.489030 2.021760 1.138828 5.489030 2.021760 0.835269 4.120606 1.504908 2.294034 31.420747 3.623730 1.740879 9.466689 3.529299 -5.796487 6.893187 7.564548 -3.699860 -10.112622 -21.363807 0.375593 -53.814875 21.636239 18.616517 -0.041917 -22.783282 0.145016 6.910842 -6.977718 -1.379078 -18.922344 16.663591 -5.958577 -22.694368 -19.105734 -10.223592 -7.038511 11.549114 0.532100 12.480524 0.647353 5.124467 0.694135 1.755862 -2.109572 -2.454437 -0.891259 -0.017443 0.315842 -0.212511 -8.950314 0.965661 14.031419 3.562660 11.455617 2.442533 10.254705 4.946919 -4.247210 -0.583173 3.799527 0.358266
307.770560 96.736889 10.228052 16.361454 -9.457330 -0.764241 2.874275 12.430424 4.756775 1.120464 5.500246 2.042550 1.120464 5.500246 2.042550 0.821279 4.128996 1.520628 2.362061 31.532290 3.617528 1.820033 9.619168 3.509172 -5.817202 6.988387 7.596084 -3.638699 -10.191660 -21.353206 0.246650 -53.744478 21.544701 18.576183 -0.102661 -22.993322 0.171403 6.916580 -6.974636 -1.228148 -18.820363 16.639860 -6.124782 -22.273340 -18.870958 -10.157944 -6.876963 11.519063 0.920650 12.444850 0.491394 5.445393 0.780891 1.684273 -1.467450 -2.550613 -0.389044 -0.011079 0.285146 -0.275010 -9.661165 1.948353 14.141445 4.984647 9.867173 2.279856 8.399387 5.802844 -5.776523 -0.325922 2.888343 1.564963
308.316228 96.738243 10.325463 15.032166 -9.345036 -0.898795 2.844169 12.455134 4.783965 1.098384 5.501220 2.058100 1.098384 5.501220 2.058100 0.804588 4.129681 1.532479 2.423560 31.647444 3.607007 1.892986 9.776673 3.485759 -5.851505 7.107502 7.636985 -3.613005 -10.302815 -21.349471 0.173556 -53.650715 21.422457 18.547642 -0.139379 -23.194893 0.190484 6.990052 -6.978762 -1.055976 -18.755690 16.603926 -6.363241 -21.830179 -18.576029 -10.159451 -6.771666 11.482839 1.193248 12.327125 0.307386 5.775350 0.846842 1.602380 -0.768175 -2.630994 0.145975 0.001000 0.243292 -0.346890 -9.690243 2.664034 14.255978 6.250120 8.478325 2.111083 6.052847 6.723260 -7.290064 -0.110199 1.948811 2.548443
308.854197 96.743440 10.422451 13.780211 -9.126103 -1.062485 2.723362 12.381029 4.814068 1.064172 5.497586 2.063584 1.064172 5.497586 2.063584 0.778912 4.126849 1.536905 2.501220 31.772394 3.595550 1.984497 9.948105 3.457868 -5.880096 7.249499 7.704411 -3.623400 -10.431919 -21.352808 0.204618 -53.480447 21.217018 18.536544 -0.162643 -23.396060 0.234341 7.080988 -6.971697 -0.887986 -18.728715 16.552842 -6.629587 -21.346681 -18.233686 -10.256756 -6.700623 11.408879 1.355091 12.107021 0.128575 6.117015 0.884044 1.512509 -0.034579 -2.675827 0.701962 0.004685 0.178394 -0.417004 -9.229468 3.049607 14.419989 7.273860 7.426282 1.948079 3.486511 7.603122 -8.433339 0.091510 1.027966 3.043905
309.405914 96.754037 10.526438 12.534440 -8.944190 -1.166907 2.629044 12.358802 4.800630 1.023026 5.491873 2.064138 1.023026 5.491873 2.064138 0.748092 4.122426 1.537703 2.569274 31.900366 3.589804 2.064119 10.124174 3.438648 -5.953476 7.399745 7.773332 -3.652843 -10.587330 -21.353478 0.297447 -53.254322 20.951041 18.541289 -0.180538 -23.601035 0.237539 7.210670 -6.961365 -0.724030 -18.702912 16.520998 -6.931454 -20.872628 -17.840687 -10.403098 -6.658592 11.330678 1.486406 11.922070 -0.134363 6.457011 0.912436 1.438158 0.712233 -2.723363 1.272393 0.005398 0.112705 -0.482945 -8.412426 3.267799 14.514709 8.063132 6.865581 1.772979 1.148309 8.207026 -8.797795 0.180526 0.248961 2.865743
309.995059 96.766092 10.615658 11.332191 -8.753083 -1.096183 2.451214 12.348002 4.594637 0.961361 5.485082 2.051130 0.961361 5.485082 2.051130 0.702019 4.117101 1.528523 2.658075 32.017624 3.578191 2.168263 10.286049 3.407982 -6.009259 7.554173 7.861624 -3.715115 -10.746662 -21.331876 0.496866 -52.961938 20.577942 18.577168 -0.197112 -23.795744 0.293710 7.327366 -6.915785 -0.591950 -18.714234 16.470395 -7.253622 -20.371331 -17.413470 -10.609577 -6.595535 11.226766 1.518104 11.725700 -0.604951 6.781525 0.939764 1.341083 1.482063 -2.807391 1.886167 0.005721 0.078553 -0.539726 -7.418601 3.257219 14.513415 8.457678 6.963998 1.587534 -0.691136 8.058711 -8.543727 0.258124 -0.036703 2.219415
310.532773 96.771908 10.696768 10.173995 -8.504673 -1.338631 2.316092 12.291395 4.714325 0.899407 5.479339 2.042892 0.899407 5.479339 2.042892 0.655683 4.112572 1.522917 2.733802 32.109674 3.546472 2.261905 10.412745 3.357143 -6.088509 7.681935 7.905903 -3.798976 -10.904293 -21.287736 0.827312 -52.629354 20.065060 18.650640 -0.210571 -23.995572 0.298433 7.442780 -6.895095 -0.473134 -18.655022 16.449612 -7.587823 -19.924547 -16.932894 -10.837539 -6.489115 11.177029 1.554318 11.434684 -0.742808 7.042090 0.958832 1.242166 2.344459 -2.808395 2.488277 -0.002852 -0.007178 -0.594221 -6.312792 3.123014 14.756188 8.331533 7.314405 1.370874 -1.072683 7.746678 -8.528625 0.161383 -0.237387 2.029603
311.084834 96.769986 10.768926 9.015701 -8.277982 -1.553213 2.170639 12.256304 4.795736 0.827405 5.474566 2.033254 0.827405 5.474566 2.033254 0.601825 4.108737 1.516349 2.813837 32.177824 3.493034 2.364898 10.506189 3.280421 -6.141783 7.820088 7.956503 -3.914013 -11.054712 -21.236220 1.320296 -52.253095 19.350988 18.841223 -0.220307 -24.220431 0.312841 7.536018 -6.887265 -0.359923 -18.618056 16.411884 -7.936385 -19.482439 -16.412762 -11.097065 -6.290406 11.128003 1.590151 11.149099 -0.906392 7.210476 0.970630 1.113935 3.292370 -2.755194 3.118020 -0.008481 -0.133148 -0.637811 -5.044434 2.793147 14.891606 7.761631 8.114253 1.249261 -0.573144 6.503976 -8.618141 -0.000790 -0.291313 0.813696
311.658568 96.764254 10.834224 7.863486 -8.066083 -1.700445 2.004054 12.253552 4.807937 0.749231 5.474195 2.029460 0.749231 5.474195 2.029460 0.543275 4.108192 1.514208 2.889335 32.229741 3.426127 2.465574 10.577032 3.189237 -6.184838 7.952255 7.988407 -4.027943 -11.203880 -21.202309 1.979990 -51.849672 18.439916 19.193957 -0.210163 -24.485826 0.330215 7.637031 -6.914017 -0.280808 -18.533797 16.400572 -8.234629 -19.040162 -15.849640 -11.366157 -6.075427 11.124967 1.614692 10.860589 -1.156453 7.313076 0.995009 0.994919 4.297485 -2.746285 3.752402 -0.007801 -0.219312 -0.668613 -3.658504 2.381690 14.894393 7.029806 9.076792 1.252744 0.115491 4.662588 -8.451497 -0.082134 0.411107 0.743969
312.264652 96.755477 10.888514 6.725798 -7.896346 -1.754366 1.811028 12.292501 4.720085 0.668394 5.486101 2.022148 0.668394 5.486101 2.022148 0.482716 4.116844 1.509435 2.964031 32.284090 3.363606 2.564464 10.651612 3.103219 -6.232026 8.083801 8.037629 -4.139033 -11.359204 -21.180465 2.856383 -51.412029 17.292881 19.732989 -0.165875 -24.846602 0.339886 7.725625 -6.944450 -0.220322 -18.478607 16.385498 -8.490485 -18.604572 -15.279815 -11.524362 -5.836128 11.193513 1.615347 10.605712 -1.517214 7.360989 1.017936 0.862231 5.355700 -2.795158 4.400306 -0.010256 -0.247445 -0.681164 -2.157406 1.949982 14.692802 5.939147 9.974746 1.342861 1.067436 2.819873 -8.163955 -0.118994 1.065971 0.550376
312.893418 96.747092 10.927855 5.589640 -7.730559 -1.728411 1.608039 12.357158 4.559053 0.589038 5.505373 2.011266 0.589038 5.505373 2.011266 0.423275 4.131024 1.501968 3.027777 32.313773 3.303839 2.650024 10.692232 3.022272 -6.255669 8.220578 8.090053 -4.238933 -11.532136 -21.186182 3.936782 -50.946764 15.936947 20.544514 -0.052388 -25.348208 0.344524 7.800740 -6.993380 -0.183740 -18.410741 16.384509 -8.702774 -18.122405 -14.677479 -11.538324 -5.817738 11.281901 1.611991 10.321124 -1.970256 7.372947 1.072223 0.734553 6.428579 -2.896307 5.045099 -0.011113 -0.227339 -0.680176 -0.385506 1.553826 14.295335 4.461963 10.529210 1.614553 2.100764 1.432386 -7.836031 -0.096144 1.504496 0.263482
313.523467 96.744003 10.955534 4.438959 -7.576636 -1.715923 1.409016 12.436173 4.425529 0.507395 5.537217 1.992848 0.507395 5.537217 1.992848 0.362148 4.154621 1.488861 3.092716 32.328505 3.237152 2.738224 10.712231 2.932990 -6.273042 8.386905 8.157766 -4.331110 -11.760320 -21.219405 5.238883 -50.424525 14.355960 21.656284 0.164313 -25.979625 0.375234 7.885485 -7.044944 -0.222267 -18.389325 16.392673 -8.788104 -17.607129 -14.089399 -11.561235 -5.890695 11.377491 1.642887 10.005276 -2.384363 7.375982 1.144307 0.578111 7.503632 -2.896310 5.667549 -0.007344 -0.288215 -0.649659 1.845406 1.315519 13.803409 2.527639 10.517718 1.961180 3.283144 0.777117 -7.710941 -0.071326 1.597665 0.201430
314.163798 96.751363 10.978997 3.212181 -7.469115 -1.631943 1.271934 12.580102 4.252935 0.438559 5.582604 1.965401 0.438559 5.582604 1.965401 0.310658 4.188415 1.468865 3.134475 32.350991 3.178244 2.798776 10.742741 2.857800 -6.319583 8.577201 8.214874 -4.391455 -12.041993 -21.262753 6.802002 -49.851319 12.538764 22.975781 0.502919 -26.768650 0.395852 7.970859 -7.098977 -0.319414 -18.412975 16.424145 -8.767929 -17.042420 -13.517425 -11.556321 -6.011834 11.453887 1.750653 9.681416 -2.848657 7.397245 1.264685 0.415301 8.558943 -2.849736 6.250542 0.004428 -0.392483 -0.590699 4.568935 1.250563 13.213611 0.254254 10.239902 2.292021 4.397807 0.265288 -7.353582 -0.115909 1.646928 0.013518
314.805240 96.771527 10.997132 1.952683 -7.418089 -1.511137 1.167171 12.785247 4.079470 0.367158 5.639317 1.917255 0.367158 5.639317 1.917255 0.257407 4.230689 1.433381 3.164930 32.372067 3.126531 2.844991 10.771310 2.793207 -6.356742 8.801241 8.272279 -4.412614 -12.361504 -21.304878 8.565883 -49.204253 10.532340 24.395515 0.983295 -27.684709 0.446183 8.010195 -7.121198 -0.430298 -18.433688 16.452901 -8.631184 -16.465946 -12.985614 -11.491176 -6.133000 11.550555 1.857243 9.379179 -3.332696 7.445190 1.403388 0.235928 9.618891 -2.787456 6.800060 0.014053 -0.495655 -0.512699 7.413340 1.282454 12.579006 -1.841043 10.106679 2.590065 5.246410 -0.298568 -6.923835 -0.162544 1.606516 -0.125135
